<svg width="20" height="12" viewBox="0 0 20 12" fill="none" xmlns="http://www.w3.org/2000/svg">
<path d="M0 0.782609C0 0.350386 0.335786 0 0.75 0H19.25C19.6642 0 20 0.350386 20 0.782609C20 1.21483 19.6642 1.56522 19.25 1.56522H0.75C0.335787 1.56522 0 1.21483 0 0.782609Z" fill="#364CB0"/>
<path d="M0 6C0 5.56778 0.335786 5.21739 0.75 5.21739H19.25C19.6642 5.21739 20 5.56778 20 6C20 6.43222 19.6642 6.78261 19.25 6.78261H0.75C0.335787 6.78261 0 6.43222 0 6Z" fill="#364CB0"/>
<path d="M0 11.2174C0 10.7852 0.335786 10.4348 0.75 10.4348H19.25C19.6642 10.4348 20 10.7852 20 11.2174C20 11.6496 19.6642 12 19.25 12H0.75C0.335787 12 0 11.6496 0 11.2174Z" fill="#364CB0"/>
</svg>
