<svg width="100" height="100" viewBox="0 0 100 100" fill="none" xmlns="http://www.w3.org/2000/svg">
<path d="M99 50C99 77.062 77.062 99 50 99C22.938 99 1 77.062 1 50C1 22.938 22.938 1 50 1C77.062 1 99 22.938 99 50Z" fill="white" stroke="#0CA41B" stroke-width="2"/>
<path fill-rule="evenodd" clip-rule="evenodd" d="M26.7587 47.6347C27.305 47.2126 28.09 47.3132 28.5121 47.8595L44.1084 68.043C44.5306 68.5893 44.4299 69.3743 43.8836 69.7964C43.3374 70.2185 42.5524 70.1179 42.1302 69.5716L26.5339 49.3881C26.1118 48.8419 26.2124 48.0568 26.7587 47.6347Z" fill="#0CA41B"/>
<path fill-rule="evenodd" clip-rule="evenodd" d="M73.2466 30.2072C73.7908 30.632 73.8876 31.4175 73.4629 31.9617L44.1051 69.5764C43.6803 70.1206 42.8948 70.2175 42.3506 69.7927C41.8064 69.3679 41.7095 68.5824 42.1343 68.0382L71.4921 30.4235C71.9168 29.8793 72.7023 29.7825 73.2466 30.2072Z" fill="#0CA41B"/>
</svg>
