<svg width="3" height="11" viewBox="0 0 3 11" fill="none" xmlns="http://www.w3.org/2000/svg">
<path d="M0 0.846154C0 0.378836 0.335786 0 0.75 0H2.25C2.66421 0 3 0.378836 3 0.846154V1.69231C3 2.15963 2.66421 2.53846 2.25 2.53846H0.75C0.335786 2.53846 0 2.15963 0 1.69231V0.846154Z" fill="#364CB0"/>
<path d="M0 5.07692C0 4.60961 0.335786 4.23077 0.75 4.23077H2.25C2.66421 4.23077 3 4.60961 3 5.07692V5.92308C3 6.39039 2.66421 6.76923 2.25 6.76923H0.75C0.335786 6.76923 0 6.39039 0 5.92308V5.07692Z" fill="#364CB0"/>
<path d="M0 9.30769C0 8.84037 0.335786 8.46154 0.75 8.46154H2.25C2.66421 8.46154 3 8.84037 3 9.30769V10.1538C3 10.6212 2.66421 11 2.25 11H0.75C0.335786 11 0 10.6212 0 10.1538V9.30769Z" fill="#364CB0"/>
</svg>
