<svg width="14" height="15" viewBox="0 0 14 15" fill="none" xmlns="http://www.w3.org/2000/svg">
<path d="M12.6825 1.81889C10.9233 0.0597012 8.06109 0.0597285 6.3019 1.81892C5.10028 3.02054 4.6829 4.79135 5.2032 6.39793L0.122129 11.479C0.0452109 11.5559 0.00195312 11.6601 0.00195312 11.769V14.0894C0.00195312 14.3161 0.185402 14.4995 0.412109 14.4995H2.73245C2.84138 14.4995 2.94554 14.4563 3.02243 14.3793L3.60241 13.799C3.69093 13.7104 3.73418 13.5863 3.71977 13.4617L3.64767 12.8384L4.51124 12.7571C4.70751 12.7387 4.86252 12.5837 4.88095 12.3874L4.96227 11.5238L5.58552 11.5963C5.70127 11.6119 5.81783 11.5731 5.90555 11.4954C5.99286 11.4173 6.04293 11.3059 6.04293 11.189V10.4253H6.79275C6.90168 10.4253 7.00584 10.382 7.08273 10.3051L8.13456 9.26722C9.74073 9.78792 11.4809 9.40199 12.6825 8.19955C14.4417 6.44039 14.4417 3.57808 12.6825 1.81889ZM11.5222 4.71924C11.0423 5.1991 10.2621 5.1991 9.78224 4.71924C9.30238 4.23938 9.30238 3.45913 9.78224 2.97928C10.2621 2.49942 11.0423 2.49942 11.5222 2.97928C12.0021 3.45913 12.002 4.23938 11.5222 4.71924Z" fill="#364CB0"/>
</svg>
