<svg width="15" height="12" viewBox="0 0 15 12" fill="none" xmlns="http://www.w3.org/2000/svg">
<path d="M14.9945 3.65677C14.8881 1.62129 13.1379 0.0150613 11.0466 0C11.0362 0 11.0264 0 11.0161 0C9.08358 0 8.00643 1.27699 7.5 2.13904C6.9936 1.27702 5.91645 0 3.98394 0C3.97363 0 3.96334 0 3.95347 0C1.86217 0.0150876 0.111948 1.62129 0.00551257 3.65677C-0.125386 6.15283 2.08661 7.82782 5.39069 10.3625C5.96274 10.8014 6.57129 11.2681 7.21075 11.772L7.5 12L7.78925 11.7721C8.42868 11.2682 9.03724 10.8015 9.60931 10.3625C12.9134 7.82779 15.1254 6.15283 14.9945 3.65677Z" fill="#364CB0"/>
</svg>
