<svg width="22" height="20" viewBox="0 0 22 20" fill="none" xmlns="http://www.w3.org/2000/svg">
<path d="M0.396075 19.2279H4.51561V5.49715H0.396075V19.2279ZM16.4451 5.02153C14.4459 5.02153 12.657 5.75165 11.388 7.36321V5.45199H7.25331V19.2281H11.388V11.7783C11.388 10.2039 12.8304 8.66802 14.6371 8.66802C16.4438 8.66802 16.8893 10.2039 16.8893 11.7398V19.2267H21.0089V11.4332C21.0087 6.01974 18.4458 5.02153 16.4451 5.02153ZM2.43659 4.12498C3.5751 4.12498 4.49915 3.20093 4.49915 2.06241C4.49915 0.923894 3.5751 0 2.43659 0C1.29807 0 0.374023 0.924045 0.374023 2.06256C0.374023 3.20108 1.29807 4.12498 2.43659 4.12498Z" fill="#364CB0"/>
</svg>
