<svg width="116" height="18" viewBox="0 0 116 18" fill="none" xmlns="http://www.w3.org/2000/svg">
<path d="M8.05504 11.5707C7.99427 11.4713 7.88589 11.4107 7.76906 11.4107H4.76369C4.57877 11.4107 4.42886 11.56 4.42886 11.744V17.6667C4.42886 17.8508 4.27896 18 4.09404 18H0.334822C0.149905 18 0 17.8508 0 17.6667V0.333333C0 0.149238 0.149905 0 0.334822 0H8.32154C10.8608 0 12.8193 0.473901 14.1972 1.4217C15.575 2.36951 16.264 3.70879 16.264 5.43956C16.264 6.66758 15.9441 7.69368 15.3044 8.51786C14.7358 9.25432 13.8987 9.85649 12.793 10.3244C12.6024 10.405 12.5208 10.6334 12.6252 10.8114L16.7224 17.7951C16.7347 17.8159 16.7411 17.8396 16.7411 17.8638V17.8638C16.7411 17.939 16.6798 18 16.6043 18H12.1756C12.0588 18 11.9504 17.9394 11.8896 17.84L8.05504 11.5707ZM4.42886 7.73993C4.42886 7.92402 4.57877 8.07326 4.76369 8.07326H8.00148C9.11362 8.07326 9.97478 7.83837 10.585 7.36859C11.1952 6.89057 11.5003 6.40517 11.5003 5.73626C11.5003 5.06735 11.2099 4.55311 10.6293 4.06685C10.0584 3.58059 9.17759 3.33745 7.98672 3.33745H4.76369C4.57877 3.33745 4.42886 3.48669 4.42886 3.67079V7.73993Z" fill="#2B2A28"/>
<path d="M34.4868 9.86584C34.4868 10.0499 34.3369 10.1992 34.152 10.1992H24.2829C24.098 10.1992 23.9481 10.3484 23.9481 10.5325V11.6873C23.9481 13.5282 25.4472 15.0206 27.2963 15.0206H34.152C34.3369 15.0206 34.4868 15.1698 34.4868 15.3539V17.6667C34.4868 17.8508 34.3369 18 34.152 18H26.4512C22.5161 18 19.2604 14.9195 19.1314 11.004C19.1033 10.1506 19.085 9.42918 19.085 9C19.085 8.57082 19.1033 7.84937 19.1314 6.99601C19.2604 3.0805 22.5161 0 26.4512 0H34.152C34.3369 0 34.4868 0.149238 34.4868 0.333333V2.67079C34.4868 2.85488 34.3369 3.00412 34.152 3.00412H27.2963C25.4472 3.00412 23.9481 4.49651 23.9481 6.33745V6.96062C23.9481 7.14472 24.098 7.29396 24.2829 7.29396H34.152C34.3369 7.29396 34.4868 7.44319 34.4868 7.62729V9.86584Z" fill="#2B2A28"/>
<path d="M45.8693 12.6837C45.9763 12.9752 46.3903 12.9756 46.4979 12.6843L51.1055 0.218225C51.1539 0.0871158 51.2794 0 51.4197 0H55.744C55.9839 0 56.146 0.243908 56.0521 0.463754L48.6498 17.7971C48.5973 17.9201 48.476 18 48.3417 18H44.0393C43.9049 18 43.7835 17.9199 43.731 17.7967L36.3579 0.463318C36.2644 0.243526 36.4265 0 36.6662 0H40.9756C41.1162 0 41.2418 0.0874111 41.2901 0.21884L45.8693 12.6837Z" fill="#2B2A28"/>
<path d="M69.4663 14.1749C69.4175 14.0444 69.2923 13.9579 69.1525 13.9579H61.7481C61.6079 13.9579 61.4825 14.0449 61.434 14.1759L60.0991 17.7819C60.0506 17.913 59.9252 18 59.785 18H55.7624C55.5197 18 55.3576 17.7508 55.457 17.5302L63.2664 0.196914C63.3204 0.077098 63.44 0 63.5719 0H67.2985C67.4301 0 67.5496 0.076809 67.6037 0.196286L75.4564 17.5296C75.5563 17.7502 75.3942 18 75.1511 18H71.129C70.9891 18 70.864 17.9134 70.8152 17.7829L69.4663 14.1749ZM62.9357 10.1518C62.8374 10.3722 62.9995 10.6204 63.2417 10.6204H67.6558C67.8986 10.6204 68.0607 10.3711 67.9612 10.1505L65.7421 5.23039C65.6235 4.96741 65.2481 4.96818 65.1306 5.23163L62.9357 10.1518Z" fill="#2B2A28"/>
<path d="M78.0135 18C77.8286 18 77.6787 17.8508 77.6787 17.6667V0.333333C77.6787 0.149238 77.8286 0 78.0135 0H84.8869C86.8507 0 88.6048 0.358516 90.1493 1.07555C91.7039 1.78434 92.916 2.79808 93.7854 4.11676C94.6548 5.4272 95.0895 6.91896 95.0895 8.59203V9.42033C95.0895 11.0934 94.6599 12.581 93.8007 13.8832C92.9518 15.1854 91.75 16.1951 90.1953 16.9121C88.6406 17.6291 86.8865 17.9918 84.9329 18H78.0135ZM82.951 3.00412C82.7661 3.00412 82.6162 3.15336 82.6162 3.33745V14.6873C82.6162 14.8714 82.7661 15.0206 82.951 15.0206H84.8408C86.641 15.0206 88.0167 14.5467 88.9679 13.5989C89.9191 12.6511 90.405 11.2953 90.4254 9.53159V8.57967C90.4254 6.75 89.9549 5.36538 89.0139 4.42582C88.0729 3.47802 86.6973 3.00412 84.8869 3.00412H82.951Z" fill="#2B2A28"/>
<path d="M109.98 14.1749C109.931 14.0444 109.806 13.9579 109.666 13.9579H102.262C102.121 13.9579 101.996 14.0449 101.947 14.1759L100.613 17.7819C100.564 17.913 100.439 18 100.298 18H96.2759C96.0331 18 95.871 17.7508 95.9704 17.5302L103.78 0.196914C103.834 0.077098 103.953 0 104.085 0H107.812C107.944 0 108.063 0.076809 108.117 0.196286L115.97 17.5296C116.07 17.7502 115.908 18 115.665 18H111.642C111.503 18 111.377 17.9134 111.329 17.7829L109.98 14.1749ZM103.449 10.1518C103.351 10.3722 103.513 10.6204 103.755 10.6204H108.169C108.412 10.6204 108.574 10.3711 108.475 10.1505L106.255 5.23039C106.137 4.96741 105.762 4.96818 105.644 5.23163L103.449 10.1518Z" fill="#2B2A28"/>
</svg>
