<svg width="116" height="15" viewBox="0 0 116 15" fill="none" xmlns="http://www.w3.org/2000/svg">
<path d="M27.4745 9.64224C27.4247 9.55945 27.3358 9.50893 27.24 9.50893H24.7753C24.6236 9.50893 24.5007 9.63329 24.5007 9.78671V14.7222C24.5007 14.8756 24.3778 15 24.2261 15H21.1432C20.9915 15 20.8686 14.8756 20.8686 14.7222V0.277778C20.8686 0.124365 20.9915 0 21.1432 0H27.6931C29.7755 0 31.3817 0.394918 32.5117 1.18475C33.6416 1.97459 34.2066 3.09066 34.2066 4.53297C34.2066 5.55632 33.9443 6.4114 33.4197 7.09821C32.9534 7.71193 32.2669 8.21374 31.3601 8.60365C31.2038 8.67085 31.1369 8.86114 31.2225 9.0095L34.5826 14.8292C34.5927 14.8466 34.5979 14.8664 34.5979 14.8865V14.8865C34.5979 14.9492 34.5477 15 34.4857 15H30.8538C30.758 15 30.6691 14.9495 30.6192 14.8667L27.4745 9.64224ZM24.5007 6.44994C24.5007 6.60335 24.6236 6.72772 24.7753 6.72772H27.4306C28.3427 6.72772 29.0489 6.53197 29.5493 6.14049C30.0497 5.74214 30.3 5.33765 30.3 4.78022C30.3 4.22279 30.0618 3.79426 29.5856 3.38904C29.1175 2.98382 28.3951 2.78121 27.4185 2.78121H24.7753C24.6236 2.78121 24.5007 2.90558 24.5007 3.05899V6.44994Z" fill="#2B2A28"/>
<path d="M49.1511 8.22154C49.1511 8.37495 49.0281 8.49931 48.8765 8.49931H40.7829C40.6313 8.49931 40.5083 8.62368 40.5083 8.77709V9.73939C40.5083 11.2735 41.7377 12.5172 43.2542 12.5172H48.8765C49.0281 12.5172 49.1511 12.6415 49.1511 12.7949V14.7222C49.1511 14.8756 49.0281 15 48.8765 15H42.5611C39.334 15 36.6639 12.4329 36.5582 9.16999C36.5351 8.45886 36.5201 7.85765 36.5201 7.5C36.5201 7.14235 36.5351 6.54114 36.5582 5.83001C36.6639 2.56708 39.334 0 42.5611 0H48.8765C49.0281 0 49.1511 0.124365 49.1511 0.277778V2.22566C49.1511 2.37907 49.0281 2.50343 48.8765 2.50343H43.2542C41.7377 2.50343 40.5083 3.74709 40.5083 5.28121V5.80052C40.5083 5.95393 40.6313 6.0783 40.7829 6.0783H48.8765C49.0281 6.0783 49.1511 6.20266 49.1511 6.35607V8.22154Z" fill="#2B2A28"/>
<path d="M58.486 10.5698C58.5738 10.8127 58.9132 10.813 59.0015 10.5703L62.7802 0.181854C62.8199 0.0725965 62.9228 0 63.0379 0H66.5842C66.781 0 66.9139 0.203256 66.8369 0.386462L60.7663 14.8309C60.7232 14.9334 60.6237 15 60.5136 15H56.9852C56.875 15 56.7754 14.9333 56.7324 14.8305L50.6857 0.386099C50.6091 0.202939 50.742 0 50.9386 0H54.4727C54.588 0 54.691 0.0728426 54.7306 0.182367L58.486 10.5698Z" fill="#2B2A28"/>
<path d="M77.8378 11.8124C77.7978 11.7037 77.6952 11.6316 77.5805 11.6316H71.5082C71.3932 11.6316 71.2903 11.7041 71.2506 11.8133L70.1559 14.8183C70.1161 14.9275 70.0133 15 69.8982 15H66.5994C66.4003 15 66.2673 14.7923 66.3488 14.6085L72.7533 0.164095C72.7976 0.0642483 72.8957 0 73.0039 0H76.06C76.168 0 76.2659 0.0640075 76.3103 0.163572L82.7503 14.608C82.8323 14.7919 82.6994 15 82.5 15H79.2014C79.0867 15 78.9841 14.9279 78.9441 14.8191L77.8378 11.8124ZM72.4822 8.45983C72.4015 8.64351 72.5344 8.85035 72.7331 8.85035H76.353C76.5522 8.85035 76.6851 8.64258 76.6035 8.45879L74.7836 4.35866C74.6864 4.13951 74.3786 4.14015 74.2822 4.3597L72.4822 8.45983Z" fill="#2B2A28"/>
<path d="M84.8473 15C84.6957 15 84.5728 14.8756 84.5728 14.7222V0.277778C84.5728 0.124365 84.6957 0 84.8473 0H90.4841C92.0947 0 93.5332 0.298764 94.7998 0.896291C96.0748 1.48695 97.0688 2.33173 97.7818 3.43063C98.4948 4.52266 98.8513 5.7658 98.8513 7.16003V7.85027C98.8513 9.24451 98.499 10.4842 97.7944 11.5694C97.0982 12.6545 96.1126 13.4959 94.8376 14.0934C93.5626 14.6909 92.124 14.9931 90.5219 15H84.8473ZM88.8966 2.50343C88.7449 2.50343 88.622 2.6278 88.622 2.78121V12.2394C88.622 12.3928 88.7449 12.5172 88.8966 12.5172H90.4464C91.9227 12.5172 93.0509 12.1223 93.831 11.3324C94.6111 10.5426 95.0095 9.41278 95.0263 7.94299V7.14973C95.0263 5.625 94.6405 4.47115 93.8687 3.68819C93.097 2.89835 91.9688 2.50343 90.4841 2.50343H88.8966Z" fill="#2B2A28"/>
<path d="M111.063 11.8124C111.023 11.7037 110.92 11.6316 110.806 11.6316H104.733C104.618 11.6316 104.515 11.7041 104.476 11.8133L103.381 14.8183C103.341 14.9275 103.238 15 103.123 15H99.8244C99.6253 15 99.4924 14.7923 99.5739 14.6085L105.978 0.164095C106.023 0.0642483 106.121 0 106.229 0H109.285C109.393 0 109.491 0.0640075 109.535 0.163572L115.975 14.608C116.057 14.7919 115.924 15 115.725 15H112.426C112.312 15 112.209 14.9279 112.169 14.8191L111.063 11.8124ZM105.707 8.45983C105.627 8.64351 105.759 8.85035 105.958 8.85035H109.578C109.777 8.85035 109.91 8.64258 109.829 8.45879L108.009 4.35866C107.911 4.13951 107.604 4.14015 107.507 4.3597L105.707 8.45983Z" fill="#2B2A28"/>
<path d="M2.31402 8.67003C2.25681 8.76487 2.37014 8.87056 2.45648 8.80289L9.26635 3.46565C9.4532 3.3192 9.62667 3.15556 9.78462 2.97675L9.87597 2.87333C10.0163 2.71451 10.1224 2.52666 10.1883 2.32052C10.2542 2.11438 10.2786 1.89398 10.2601 1.6719C10.2416 1.44983 10.1806 1.23043 10.0805 1.02622C9.98036 0.822022 9.84317 0.637019 9.67671 0.481779C9.51025 0.326538 9.31779 0.2041 9.11032 0.121455C8.90285 0.0388105 8.68443 -0.00242271 8.46752 0.000109981C8.25062 0.00264267 8.03949 0.0488921 7.84618 0.136217C7.65286 0.223542 7.48116 0.350232 7.34087 0.509054L7.24952 0.612476C7.09158 0.791284 6.94982 0.984511 6.82602 1.18976L2.31402 8.67003Z" fill="#364CB0"/>
<path d="M12.2894 4.73739C12.2378 4.64443 12.0929 4.69513 12.1073 4.80112L13.2346 13.1301C13.2683 13.3796 13.3251 13.6253 13.4042 13.8638L13.4363 13.9609C13.5008 14.1553 13.6065 14.3331 13.7475 14.4843C13.8884 14.6354 14.0619 14.7568 14.2579 14.8417C14.454 14.9265 14.6687 14.973 14.89 14.9787C15.1112 14.9843 15.3347 14.9488 15.5474 14.8744C15.7602 14.7999 15.9583 14.6879 16.1302 14.5447C16.3021 14.4015 16.4446 14.2299 16.5495 14.0398C16.6544 13.8496 16.7197 13.6447 16.7416 13.4365C16.7635 13.2284 16.7416 13.0212 16.6772 12.8268L16.645 12.7297C16.566 12.4912 16.465 12.261 16.3436 12.0422L12.2894 4.73739Z" fill="#00A4E4"/>
<path d="M10.475 15C10.5815 15.0001 10.6088 14.8401 10.5093 14.7989L2.66392 11.5461C2.44866 11.4569 2.22634 11.3891 1.99972 11.3436L1.86864 11.3173C1.66735 11.2769 1.46012 11.2831 1.25879 11.3358C1.05746 11.3884 0.865973 11.4863 0.695256 11.6239C0.524539 11.7615 0.377939 11.9361 0.263824 12.1378C0.14971 12.3394 0.0703171 12.5642 0.0301781 12.7992C-0.00996094 13.0342 -0.0100603 13.2749 0.029887 13.5075C0.0698343 13.7401 0.149045 13.9601 0.262996 14.1548C0.376948 14.3496 0.523409 14.5153 0.694017 14.6426C0.864625 14.7699 1.05604 14.8562 1.25733 14.8966L1.38841 14.9229C1.61503 14.9684 1.845 14.9914 2.07547 14.9916L10.475 15Z" fill="#1DADE4"/>
</svg>
