<svg width="96" height="15" viewBox="0 0 96 15" fill="none" xmlns="http://www.w3.org/2000/svg">
<path d="M7.47451 9.64224C7.42468 9.55945 7.3358 9.50893 7.23998 9.50893H4.77528C4.62363 9.50893 4.50069 9.63329 4.50069 9.78671V14.7222C4.50069 14.8756 4.37776 15 4.22611 15H1.14318C0.991528 15 0.868591 14.8756 0.868591 14.7222V0.277778C0.868591 0.124365 0.991528 0 1.14318 0H7.69307C9.77548 0 11.3817 0.394918 12.5117 1.18475C13.6416 1.97459 14.2066 3.09066 14.2066 4.53297C14.2066 5.55632 13.9443 6.4114 13.4197 7.09821C12.9534 7.71193 12.2669 8.21374 11.3601 8.60365C11.2038 8.67085 11.1369 8.86115 11.2225 9.00949L14.5826 14.8292C14.5927 14.8466 14.5979 14.8664 14.5979 14.8865C14.5979 14.9492 14.5477 15 14.4857 15H10.8538C10.758 15 10.6691 14.9495 10.6192 14.8667L7.47451 9.64224ZM4.50069 6.44994C4.50069 6.60335 4.62363 6.72772 4.77528 6.72772H7.43059C8.34265 6.72772 9.04889 6.53197 9.54932 6.14049C10.0497 5.74214 10.3 5.33765 10.3 4.78022C10.3 4.22279 10.0618 3.79426 9.58564 3.38904C9.1175 2.98382 8.39512 2.78121 7.41848 2.78121H4.77528C4.62363 2.78121 4.50069 2.90558 4.50069 3.05899V6.44994Z" fill="#2B2A28"/>
<path d="M29.1511 8.22154C29.1511 8.37495 29.0281 8.49931 28.8765 8.49931H20.7829C20.6313 8.49931 20.5083 8.62368 20.5083 8.77709V9.73939C20.5083 11.2735 21.7377 12.5172 23.2542 12.5172H28.8765C29.0281 12.5172 29.1511 12.6415 29.1511 12.7949V14.7222C29.1511 14.8756 29.0281 15 28.8765 15H22.5611C19.334 15 16.6639 12.4329 16.5582 9.16999C16.5351 8.45886 16.5201 7.85765 16.5201 7.5C16.5201 7.14235 16.5351 6.54114 16.5582 5.83001C16.6639 2.56708 19.334 0 22.5611 0H28.8765C29.0281 0 29.1511 0.124365 29.1511 0.277778V2.22566C29.1511 2.37907 29.0281 2.50343 28.8765 2.50343H23.2542C21.7377 2.50343 20.5083 3.74709 20.5083 5.28121V5.80052C20.5083 5.95393 20.6313 6.0783 20.7829 6.0783H28.8765C29.0281 6.0783 29.1511 6.20266 29.1511 6.35607V8.22154Z" fill="#2B2A28"/>
<path d="M38.486 10.5698C38.5738 10.8127 38.9132 10.813 39.0015 10.5703L42.7802 0.181854C42.8199 0.0725965 42.9228 0 43.0379 0H46.5842C46.781 0 46.9139 0.203256 46.8369 0.386462L40.7663 14.8309C40.7232 14.9334 40.6237 15 40.5136 15H36.9852C36.875 15 36.7754 14.9333 36.7324 14.8305L30.6857 0.386099C30.6091 0.202939 30.742 0 30.9386 0H34.4727C34.588 0 34.691 0.0728426 34.7306 0.182367L38.486 10.5698Z" fill="#2B2A28"/>
<path d="M57.8378 11.8124C57.7978 11.7037 57.6952 11.6316 57.5805 11.6316H51.5082C51.3932 11.6316 51.2903 11.7041 51.2506 11.8133L50.1559 14.8183C50.1161 14.9275 50.0133 15 49.8982 15H46.5994C46.4003 15 46.2673 14.7923 46.3488 14.6085L52.7533 0.164095C52.7976 0.0642483 52.8957 0 53.0039 0H56.06C56.168 0 56.2659 0.0640075 56.3103 0.163572L62.7503 14.608C62.8323 14.7919 62.6994 15 62.5 15H59.2014C59.0867 15 58.9841 14.9279 58.9441 14.8191L57.8378 11.8124ZM52.4822 8.45983C52.4015 8.64351 52.5344 8.85035 52.7331 8.85035H56.353C56.5522 8.85035 56.6851 8.64258 56.6035 8.45879L54.7836 4.35866C54.6864 4.13951 54.3786 4.14015 54.2822 4.3597L52.4822 8.45983Z" fill="#2B2A28"/>
<path d="M64.8473 15C64.6957 15 64.5728 14.8756 64.5728 14.7222V0.277778C64.5728 0.124365 64.6957 0 64.8473 0H70.4841C72.0947 0 73.5332 0.298764 74.7998 0.896291C76.0748 1.48695 77.0688 2.33173 77.7818 3.43063C78.4948 4.52267 78.8513 5.7658 78.8513 7.16003V7.85028C78.8513 9.24451 78.499 10.4842 77.7944 11.5694C77.0982 12.6545 76.1126 13.4959 74.8376 14.0934C73.5626 14.6909 72.124 14.9931 70.5219 15H64.8473ZM68.8966 2.50343C68.7449 2.50343 68.622 2.6278 68.622 2.78121V12.2394C68.622 12.3928 68.7449 12.5172 68.8966 12.5172H70.4464C71.9227 12.5172 73.0509 12.1223 73.831 11.3324C74.6111 10.5426 75.0095 9.41278 75.0263 7.94299V7.14973C75.0263 5.625 74.6405 4.47115 73.8687 3.68819C73.097 2.89835 71.9688 2.50343 70.4841 2.50343H68.8966Z" fill="#2B2A28"/>
<path d="M91.0629 11.8124C91.0229 11.7037 90.9202 11.6316 90.8055 11.6316H84.7333C84.6182 11.6316 84.5154 11.7041 84.4756 11.8133L83.3809 14.8183C83.3411 14.9275 83.2383 15 83.1233 15H79.8244C79.6253 15 79.4924 14.7923 79.5739 14.6085L85.9784 0.164095C86.0226 0.0642483 86.1207 0 86.2289 0H89.2851C89.393 0 89.491 0.0640075 89.5354 0.163572L95.9753 14.608C96.0573 14.7919 95.9244 15 95.725 15H92.4265C92.3118 15 92.2091 14.9279 92.1691 14.8191L91.0629 11.8124ZM85.7072 8.45983C85.6266 8.64351 85.7595 8.85035 85.9581 8.85035H89.5781C89.7772 8.85035 89.9101 8.64258 89.8286 8.45879L88.0087 4.35866C87.9114 4.13951 87.6036 4.14015 87.5072 4.3597L85.7072 8.45983Z" fill="#2B2A28"/>
</svg>
