<svg width="23" height="20" viewBox="0 0 23 20" fill="none" xmlns="http://www.w3.org/2000/svg">
<path d="M3.1119 11.56C3.03497 11.6865 3.18738 11.8274 3.30349 11.7372L12.4616 4.62086C12.7129 4.4256 12.9462 4.20741 13.1586 3.969L13.2814 3.83111C13.4701 3.61934 13.6128 3.36888 13.7015 3.09403C13.7901 2.81918 13.8229 2.52531 13.798 2.22921C13.7731 1.93311 13.691 1.64057 13.5564 1.3683C13.4218 1.09603 13.2373 0.849359 13.0135 0.642372C12.7896 0.435384 12.5308 0.272133 12.2518 0.16194C11.9727 0.0517473 11.679 -0.00323028 11.3873 0.000146641C11.0956 0.00352357 10.8117 0.0651895 10.5517 0.181622C10.2917 0.298055 10.0608 0.466976 9.87215 0.678739L9.7493 0.816635C9.53689 1.05505 9.34626 1.31268 9.17977 1.58635L3.1119 11.56Z" fill="#364CB0"/>
<path d="M16.527 6.3166C16.4576 6.19266 16.2628 6.26026 16.2821 6.40157L17.7981 17.5069C17.8436 17.8396 17.9199 18.1671 18.0262 18.4851L18.0695 18.6146C18.1562 18.8738 18.2983 19.1109 18.4879 19.3124C18.6775 19.514 18.9107 19.6759 19.1744 19.789C19.438 19.9021 19.7268 19.9641 20.0244 19.9716C20.322 19.9791 20.6224 19.9318 20.9086 19.8326C21.1947 19.7333 21.461 19.5839 21.6923 19.393C21.9235 19.202 22.1151 18.9733 22.2562 18.7198C22.3973 18.4663 22.485 18.193 22.5145 17.9155C22.5439 17.638 22.5145 17.3617 22.4278 17.1025L22.3846 16.973C22.2783 16.6551 22.1425 16.3481 21.9792 16.0563L16.527 6.3166Z" fill="#00A4E4"/>
<path d="M14.087 20C14.2302 20.0002 14.267 19.7868 14.1332 19.7318L3.58252 15.3948C3.29302 15.2758 2.99404 15.1854 2.68927 15.1248L2.513 15.0897C2.24229 15.0358 1.96361 15.0442 1.69286 15.1143C1.4221 15.1845 1.16458 15.315 0.934999 15.4985C0.705415 15.682 0.508262 15.9148 0.354798 16.1837C0.201334 16.4526 0.0945643 16.7523 0.0405843 17.0656C-0.0133957 17.379 -0.0135293 17.6999 0.0401929 18.01C0.0939151 18.3201 0.20044 18.6134 0.353685 18.8731C0.50693 19.1328 0.703895 19.3538 0.933334 19.5235C1.16277 19.6932 1.42019 19.8082 1.69089 19.8621L1.86717 19.8972C2.17193 19.9579 2.48121 19.9885 2.79115 19.9888L14.087 20Z" fill="#1DADE4"/>
</svg>
