<svg width="21" height="18" viewBox="0 0 21 18" fill="none" xmlns="http://www.w3.org/2000/svg">
<path d="M2.90102 10.404C2.82929 10.5178 2.97138 10.6447 3.07963 10.5635L11.6175 4.15878C11.8517 3.98304 12.0692 3.78667 12.2672 3.5721L12.3818 3.44799C12.5577 3.25741 12.6907 3.03199 12.7734 2.78463C12.856 2.53726 12.8866 2.27278 12.8634 2.00629C12.8402 1.73979 12.7637 1.47651 12.6382 1.23147C12.5127 0.986426 12.3407 0.764423 12.132 0.578134C11.9233 0.391846 11.682 0.24492 11.4219 0.145746C11.1617 0.0465725 10.8879 -0.00290726 10.616 0.000131977C10.344 0.00317121 10.0793 0.0586705 9.83694 0.16346C9.59457 0.26825 9.3793 0.420278 9.20342 0.610865L9.08888 0.734972C8.89086 0.949541 8.71314 1.18141 8.55792 1.42771L2.90102 10.404Z" fill="#2B2A28"/>
<path d="M15.4078 5.68487C15.3431 5.57332 15.1615 5.63416 15.1795 5.76134L16.5928 15.7561C16.6352 16.0556 16.7064 16.3504 16.8055 16.6365L16.8458 16.753C16.9266 16.9863 17.0591 17.1998 17.2359 17.3811C17.4126 17.5625 17.6301 17.7082 17.8759 17.81C18.1216 17.9118 18.3909 17.9677 18.6683 17.9744C18.9457 17.9811 19.2258 17.9386 19.4926 17.8492C19.7594 17.7599 20.0077 17.6254 20.2232 17.4536C20.4388 17.2818 20.6174 17.0759 20.749 16.8477C20.8805 16.6196 20.9623 16.3736 20.9898 16.1239C21.0172 15.8741 20.9898 15.6255 20.909 15.3922L20.8686 15.2757C20.7695 14.9895 20.643 14.7132 20.4907 14.4506L15.4078 5.68487Z" fill="#2B2A28"/>
<path d="M13.1329 18.0001C13.2664 18.0003 13.3007 17.8082 13.176 17.7588L3.33988 13.8555C3.06999 13.7484 2.79126 13.667 2.50714 13.6124L2.3428 13.5808C2.09043 13.5323 1.83062 13.5399 1.5782 13.603C1.32579 13.6661 1.08571 13.7836 0.871674 13.9487C0.657639 14.1139 0.473839 14.3234 0.330768 14.5654C0.187698 14.8074 0.0881597 15.0771 0.0378356 15.3592C-0.0124885 15.6412 -0.012613 15.93 0.0374707 16.2091C0.0875544 16.4882 0.186864 16.7522 0.329731 16.9859C0.472597 17.2196 0.656222 17.4185 0.870121 17.5712C1.08402 17.7239 1.32401 17.8275 1.57637 17.876L1.74071 17.9076C2.02483 17.9622 2.31316 17.9898 2.60211 17.99L13.1329 18.0001Z" fill="#2B2A28"/>
</svg>
