<svg width="128" height="20" viewBox="0 0 128 20" fill="none" xmlns="http://www.w3.org/2000/svg">
<path d="M8.94852 12.8563C8.88151 12.7459 8.76197 12.6786 8.63312 12.6786H5.31852C5.11458 12.6786 4.94925 12.8444 4.94925 13.0489V19.6296C4.94925 19.8342 4.78392 20 4.57998 20H0.43397C0.230026 20 0.0646973 19.8342 0.0646973 19.6296V0.37037C0.0646973 0.16582 0.230026 0 0.433969 0H9.24244C12.0429 0 14.203 0.526557 15.7226 1.57967C17.2423 2.63278 18.0021 4.12088 18.0021 6.04396C18.0021 7.40842 17.6493 8.54853 16.9438 9.46429C16.3167 10.2826 15.3935 10.9517 14.1739 11.4715C13.9638 11.5611 13.8738 11.8149 13.9889 12.0127L18.5077 19.7723C18.5212 19.7955 18.5283 19.8218 18.5283 19.8487C18.5283 19.9322 18.4607 20 18.3774 20H13.493C13.3642 20 13.2447 19.9326 13.1776 19.8223L8.94852 12.8563ZM4.94925 8.59992C4.94925 8.80447 5.11458 8.97029 5.31852 8.97029H8.88945C10.116 8.97029 11.0658 8.7093 11.7388 8.18732C12.4118 7.65619 12.7483 7.11686 12.7483 6.37363C12.7483 5.63039 12.428 5.05901 11.7876 4.51872C11.1581 3.97843 10.1866 3.70828 8.87317 3.70828H5.31852C5.11458 3.70828 4.94925 3.8741 4.94925 4.07865V8.59992Z" fill="#2B2A28"/>
<path d="M38.0998 10.962C38.0998 11.1666 37.9345 11.3324 37.7305 11.3324H26.8461C26.6421 11.3324 26.4768 11.4982 26.4768 11.7028V12.9859C26.4768 15.0314 28.1301 16.6896 30.1695 16.6896H37.7305C37.9345 16.6896 38.0998 16.8554 38.0998 17.0599V19.6296C38.0998 19.8342 37.9345 20 37.7305 20H29.2375C24.8975 20 21.3067 16.5772 21.1645 12.2267C21.1335 11.2785 21.1133 10.4769 21.1133 10C21.1133 9.52314 21.1335 8.72152 21.1645 7.77334C21.3067 3.42278 24.8975 0 29.2375 0H37.7305C37.9345 0 38.0998 0.16582 38.0998 0.37037V2.96754C38.0998 3.17209 37.9345 3.33791 37.7305 3.33791H30.1695C28.1301 3.33791 26.4768 4.99612 26.4768 7.04162V7.73403C26.4768 7.93857 26.6421 8.1044 26.8461 8.1044H37.7305C37.9345 8.1044 38.0998 8.27022 38.0998 8.47477V10.962Z" fill="#2B2A28"/>
<path d="M50.6536 14.093C50.7717 14.4169 51.2283 14.4173 51.347 14.0937L56.4286 0.242472C56.482 0.0967953 56.6204 0 56.7752 0H61.5444C61.809 0 61.9877 0.271009 61.8842 0.515283L53.7203 19.7745C53.6623 19.9112 53.5285 20 53.3804 20H48.6354C48.4871 20 48.3532 19.911 48.2954 19.7741L40.1637 0.514798C40.0605 0.270585 40.2393 0 40.5037 0H45.2565C45.4115 0 45.5501 0.0971234 45.6033 0.243155L50.6536 14.093Z" fill="#2B2A28"/>
<path d="M76.6786 15.7499C76.6248 15.6049 76.4867 15.5087 76.3325 15.5087H68.1663C68.0116 15.5087 67.8733 15.6055 67.8198 15.751L66.3477 19.7577C66.2942 19.9033 66.1559 20 66.0012 20H61.5648C61.297 20 61.1182 19.7231 61.2278 19.4781L69.8408 0.218793C69.9003 0.0856644 70.0323 0 70.1777 0H74.2877C74.4329 0 74.5647 0.0853434 74.6244 0.218096L83.285 19.4774C83.3952 19.7225 83.2165 20 82.9484 20H78.5124C78.3581 20 78.2201 19.9038 78.1663 19.7588L76.6786 15.7499ZM69.4761 11.2798C69.3677 11.5247 69.5464 11.8005 69.8136 11.8005H74.6818C74.9496 11.8005 75.1284 11.5234 75.0186 11.2784L72.5712 5.81154C72.4404 5.51934 72.0264 5.52019 71.8968 5.81293L69.4761 11.2798Z" fill="#2B2A28"/>
<path d="M86.1051 20C85.9012 20 85.7358 19.8342 85.7358 19.6296V0.37037C85.7358 0.16582 85.9012 0 86.1051 0H93.6856C95.8515 0 97.7861 0.398352 99.4895 1.19505C101.204 1.9826 102.541 3.10897 103.5 4.57418C104.459 6.03022 104.938 7.68773 104.938 9.5467V10.467C104.938 12.326 104.464 13.9789 103.517 15.4258C102.58 16.8727 101.255 17.9945 99.5403 18.7912C97.8256 19.5879 95.891 19.9908 93.7364 20H86.1051ZM91.5506 3.33791C91.3467 3.33791 91.1814 3.50373 91.1814 3.70828V16.3192C91.1814 16.5237 91.3467 16.6896 91.5506 16.6896H93.6349C95.6203 16.6896 97.1375 16.163 98.1866 15.1099C99.2357 14.0568 99.7715 12.5504 99.7941 10.5907V9.53297C99.7941 7.5 99.2752 5.96154 98.2373 4.91758C97.1995 3.86447 95.6823 3.33791 93.6856 3.33791H91.5506Z" fill="#2B2A28"/>
<path d="M121.36 15.7499C121.307 15.6049 121.169 15.5087 121.014 15.5087H112.848C112.694 15.5087 112.555 15.6055 112.502 15.751L111.03 19.7577C110.976 19.9033 110.838 20 110.683 20H106.247C105.979 20 105.8 19.7231 105.91 19.4781L114.523 0.218793C114.582 0.0856644 114.714 0 114.86 0H118.97C119.115 0 119.247 0.0853434 119.306 0.218096L127.967 19.4774C128.077 19.7225 127.898 20 127.63 20H123.194C123.04 20 122.902 19.9038 122.848 19.7588L121.36 15.7499ZM114.158 11.2798C114.05 11.5247 114.228 11.8005 114.495 11.8005H119.364C119.631 11.8005 119.81 11.5234 119.701 11.2784L117.253 5.81154C117.122 5.51934 116.708 5.52019 116.579 5.81293L114.158 11.2798Z" fill="#2B2A28"/>
</svg>
