<svg width="18" height="18" viewBox="0 0 18 18" fill="none" xmlns="http://www.w3.org/2000/svg">
<mask id="path-1-outside-1_321_490" maskUnits="userSpaceOnUse" x="-0.235352" y="-0.646973" width="18" height="18" fill="black">
<rect fill="white" x="-0.235352" y="-0.646973" width="18" height="18"/>
<path d="M17.0215 16.1011L12.7827 11.8623C13.8741 10.6505 14.5449 9.05271 14.5449 7.2973C14.5449 3.52801 11.4783 0.461387 7.70896 0.461387C3.93963 0.461387 0.873008 3.52801 0.873008 7.29734C0.873008 11.0667 3.93963 14.1333 7.70896 14.1333C9.46437 14.1333 11.0621 13.4625 12.2739 12.3711L16.5127 16.6099C16.583 16.6801 16.6751 16.7153 16.7671 16.7153C16.8592 16.7153 16.9512 16.6801 17.0215 16.6099C17.162 16.4693 17.162 16.2416 17.0215 16.1011ZM7.70896 13.4137C4.33667 13.4137 1.5926 10.67 1.5926 7.29734C1.5926 3.92471 4.33667 1.18095 7.70896 1.18095C11.0812 1.18095 13.8253 3.92468 13.8253 7.29734C13.8253 10.67 11.0812 13.4137 7.70896 13.4137Z"/>
<path fill-rule="evenodd" clip-rule="evenodd" d="M17.0215 16.6099C16.9512 16.6801 16.8592 16.7153 16.7671 16.7153C16.6751 16.7153 16.583 16.6801 16.5127 16.6099L12.2739 12.3711C11.0621 13.4625 9.46437 14.1333 7.70896 14.1333C3.93963 14.1333 0.873008 11.0667 0.873008 7.29734C0.873008 3.52801 3.93963 0.461387 7.70896 0.461387C11.4783 0.461387 14.5449 3.52801 14.5449 7.2973C14.5449 9.05271 13.8741 10.6505 12.7827 11.8623L17.0215 16.1011C17.162 16.2416 17.162 16.4693 17.0215 16.6099ZM17.0981 16.0245L12.9315 11.8579C13.9995 10.6369 14.6533 9.044 14.6533 7.2973C14.6532 3.46817 11.5381 0.353027 7.70896 0.353027C3.87979 0.353027 0.764648 3.46817 0.764648 7.29734C0.764648 11.1265 3.87979 14.2416 7.70896 14.2416C9.45566 14.2416 11.0485 13.5879 12.2695 12.5199L16.4361 16.6865C16.5275 16.7779 16.6475 16.8236 16.7671 16.8236C16.8868 16.8236 17.0067 16.7778 17.0981 16.6865C17.2809 16.5036 17.281 16.2073 17.0981 16.0245C17.0981 16.0245 17.0981 16.0245 17.0981 16.0245ZM1.70096 7.29734C1.70096 10.6101 4.39651 13.3053 7.70896 13.3053C11.0214 13.3053 13.717 10.6101 13.717 7.29734C13.717 3.98453 11.0214 1.28931 7.70896 1.28931C4.39651 1.28931 1.70096 3.98456 1.70096 7.29734ZM1.5926 7.29734C1.5926 10.67 4.33667 13.4137 7.70896 13.4137C11.0812 13.4137 13.8253 10.67 13.8253 7.29734C13.8253 3.92468 11.0812 1.18095 7.70896 1.18095C4.33667 1.18095 1.5926 3.92471 1.5926 7.29734Z"/>
</mask>
<path d="M17.0215 16.1011L12.7827 11.8623C13.8741 10.6505 14.5449 9.05271 14.5449 7.2973C14.5449 3.52801 11.4783 0.461387 7.70896 0.461387C3.93963 0.461387 0.873008 3.52801 0.873008 7.29734C0.873008 11.0667 3.93963 14.1333 7.70896 14.1333C9.46437 14.1333 11.0621 13.4625 12.2739 12.3711L16.5127 16.6099C16.583 16.6801 16.6751 16.7153 16.7671 16.7153C16.8592 16.7153 16.9512 16.6801 17.0215 16.6099C17.162 16.4693 17.162 16.2416 17.0215 16.1011ZM7.70896 13.4137C4.33667 13.4137 1.5926 10.67 1.5926 7.29734C1.5926 3.92471 4.33667 1.18095 7.70896 1.18095C11.0812 1.18095 13.8253 3.92468 13.8253 7.29734C13.8253 10.67 11.0812 13.4137 7.70896 13.4137Z" fill="#364CB0"/>
<path fill-rule="evenodd" clip-rule="evenodd" d="M17.0215 16.6099C16.9512 16.6801 16.8592 16.7153 16.7671 16.7153C16.6751 16.7153 16.583 16.6801 16.5127 16.6099L12.2739 12.3711C11.0621 13.4625 9.46437 14.1333 7.70896 14.1333C3.93963 14.1333 0.873008 11.0667 0.873008 7.29734C0.873008 3.52801 3.93963 0.461387 7.70896 0.461387C11.4783 0.461387 14.5449 3.52801 14.5449 7.2973C14.5449 9.05271 13.8741 10.6505 12.7827 11.8623L17.0215 16.1011C17.162 16.2416 17.162 16.4693 17.0215 16.6099ZM17.0981 16.0245L12.9315 11.8579C13.9995 10.6369 14.6533 9.044 14.6533 7.2973C14.6532 3.46817 11.5381 0.353027 7.70896 0.353027C3.87979 0.353027 0.764648 3.46817 0.764648 7.29734C0.764648 11.1265 3.87979 14.2416 7.70896 14.2416C9.45566 14.2416 11.0485 13.5879 12.2695 12.5199L16.4361 16.6865C16.5275 16.7779 16.6475 16.8236 16.7671 16.8236C16.8868 16.8236 17.0067 16.7778 17.0981 16.6865C17.2809 16.5036 17.281 16.2073 17.0981 16.0245C17.0981 16.0245 17.0981 16.0245 17.0981 16.0245ZM1.70096 7.29734C1.70096 10.6101 4.39651 13.3053 7.70896 13.3053C11.0214 13.3053 13.717 10.6101 13.717 7.29734C13.717 3.98453 11.0214 1.28931 7.70896 1.28931C4.39651 1.28931 1.70096 3.98456 1.70096 7.29734ZM1.5926 7.29734C1.5926 10.67 4.33667 13.4137 7.70896 13.4137C11.0812 13.4137 13.8253 10.67 13.8253 7.29734C13.8253 3.92468 11.0812 1.18095 7.70896 1.18095C4.33667 1.18095 1.5926 3.92471 1.5926 7.29734Z" fill="#364CB0"/>
<path d="M17.0215 16.1011L16.9508 16.1718L16.9508 16.1718L17.0215 16.1011ZM12.7827 11.8623L12.7084 11.7954L12.6449 11.8659L12.712 11.933L12.7827 11.8623ZM14.5449 7.2973H14.6449V7.2973L14.5449 7.2973ZM12.2739 12.3711L12.3446 12.3004L12.2775 12.2332L12.207 12.2968L12.2739 12.3711ZM16.5127 16.6099L16.442 16.6806L16.5127 16.6099ZM17.0215 16.6099L17.0922 16.6806L17.0922 16.6806L17.0215 16.6099ZM17.0922 16.0304L12.8534 11.7916L12.712 11.933L16.9508 16.1718L17.0922 16.0304ZM12.857 11.9292C13.9641 10.7 14.6449 9.07876 14.6449 7.2973H14.4449C14.4449 9.02666 13.7842 10.6009 12.7084 11.7954L12.857 11.9292ZM14.6449 7.2973C14.6449 3.47278 11.5335 0.361387 7.70896 0.361387V0.561387C11.4231 0.561387 14.4449 3.58324 14.4449 7.2973L14.6449 7.2973ZM7.70896 0.361387C3.88441 0.361387 0.773008 3.47278 0.773008 7.29734H0.973008C0.973008 3.58324 3.99486 0.561387 7.70896 0.561387V0.361387ZM0.773008 7.29734C0.773008 11.1219 3.88441 14.2333 7.70896 14.2333V14.0333C3.99486 14.0333 0.973008 11.0114 0.973008 7.29734H0.773008ZM7.70896 14.2333C9.49041 14.2333 11.1117 13.5524 12.3409 12.4454L12.207 12.2968C11.0125 13.3726 9.43832 14.0333 7.70896 14.0333V14.2333ZM12.2032 12.4418L16.442 16.6806L16.5834 16.5391L12.3446 12.3004L12.2032 12.4418ZM16.442 16.6806C16.5318 16.7703 16.6496 16.8153 16.7671 16.8153V16.6153C16.7005 16.6153 16.6342 16.5899 16.5834 16.5391L16.442 16.6806ZM16.7671 16.8153C16.8846 16.8153 17.0024 16.7703 17.0922 16.6806L16.9508 16.5391C16.9 16.5899 16.8337 16.6153 16.7671 16.6153V16.8153ZM17.0922 16.6806C17.2718 16.501 17.2718 16.21 17.0922 16.0304L16.9508 16.1718C17.0523 16.2733 17.0523 16.4376 16.9508 16.5391L17.0922 16.6806ZM7.70896 13.3137C4.3919 13.3137 1.6926 10.6147 1.6926 7.29734H1.4926C1.4926 10.7252 4.28145 13.5137 7.70896 13.5137V13.3137ZM1.6926 7.29734C1.6926 3.97994 4.3919 1.28095 7.70896 1.28095V1.08095C4.28144 1.08095 1.4926 3.86948 1.4926 7.29734H1.6926ZM7.70896 1.28095C11.026 1.28095 13.7253 3.97991 13.7253 7.29734H13.9253C13.9253 3.86945 11.1365 1.08095 7.70896 1.08095V1.28095ZM13.7253 7.29734C13.7253 10.6148 11.026 13.3137 7.70896 13.3137V13.5137C11.1365 13.5137 13.9253 10.7252 13.9253 7.29734H13.7253ZM12.9315 11.8579L12.781 11.7262L12.6578 11.867L12.7901 11.9993L12.9315 11.8579ZM14.6533 7.2973H14.8533V7.2973L14.6533 7.2973ZM12.2695 12.5199L12.4109 12.3785L12.2786 12.2462L12.1378 12.3693L12.2695 12.5199ZM16.4361 16.6865L16.2947 16.8279V16.8279L16.4361 16.6865ZM17.0981 16.6865L17.2395 16.8279L17.2396 16.8279L17.0981 16.6865ZM17.2395 15.8831L13.0729 11.7164L12.7901 11.9993L16.9567 16.1659L17.2395 15.8831ZM13.082 11.9895C14.1802 10.7341 14.8533 9.09499 14.8533 7.2973H14.4533C14.4533 8.99301 13.8188 10.5397 12.781 11.7262L13.082 11.9895ZM14.8533 7.2973C14.8532 3.35771 11.6486 0.153027 7.70896 0.153027V0.553027C11.4277 0.553027 14.4532 3.57862 14.4533 7.2973L14.8533 7.2973ZM7.70896 0.153027C3.76933 0.153027 0.564648 3.35771 0.564648 7.29734H0.964648C0.964648 3.57862 3.99025 0.553027 7.70896 0.553027V0.153027ZM0.564648 7.29734C0.564648 11.237 3.76933 14.4416 7.70896 14.4416V14.0416C3.99025 14.0416 0.964648 11.016 0.964648 7.29734H0.564648ZM7.70896 14.4416C9.50665 14.4416 11.1457 13.7686 12.4012 12.6704L12.1378 12.3693C10.9513 13.4072 9.40467 14.0416 7.70896 14.0416V14.4416ZM12.1281 12.6613L16.2947 16.8279L16.5775 16.545L12.4109 12.3785L12.1281 12.6613ZM16.2947 16.8279C16.4251 16.9583 16.5966 17.0236 16.7671 17.0236V16.6236C16.6984 16.6236 16.6299 16.5974 16.5775 16.545L16.2947 16.8279ZM16.7671 17.0236C16.9377 17.0236 17.1091 16.9583 17.2395 16.8279L16.9567 16.545C16.9043 16.5974 16.8359 16.6236 16.7671 16.6236V17.0236ZM17.2396 16.8279C17.5004 16.5669 17.5005 16.144 17.2395 15.883L16.9567 16.1659C17.0614 16.2706 17.0614 16.4403 16.9567 16.5451L17.2396 16.8279ZM17.2395 15.8831C17.2395 15.883 17.2395 15.883 17.2395 15.883C17.2395 15.883 17.2395 15.883 17.2395 15.883C17.2395 15.883 17.2395 15.883 17.2395 15.883C17.2395 15.883 17.2395 15.8831 17.2395 15.8831C17.2395 16.1659 16.9567 16.1659 16.9567 16.1659C16.9567 16.1659 16.9567 16.1659 16.9567 16.1659C16.9567 16.1659 16.9567 16.1659 16.9567 16.1659C16.9567 16.1659 16.9567 16.1659 16.9567 16.1659C16.9567 16.1659 16.9567 16.1659 16.9567 16.1659C16.9567 16.1659 16.9567 16.1659 16.9567 16.1659C16.9567 16.1659 16.9567 16.1659 16.9567 16.1659C16.9567 16.1659 16.9567 16.1659 16.9567 16.1659V16.1659C16.9567 16.1659 16.9567 16.1659 16.9567 16.1659C16.9567 16.1659 16.9567 16.1659 16.9567 16.1659C16.9567 16.1659 16.9567 16.1659 16.9567 16.1659C16.9567 16.1659 16.9567 16.1659 16.9567 16.1659C16.9567 16.1659 17.2395 16.1659 17.2395 15.8831C17.2395 15.8831 17.2395 15.883 17.2395 15.8831V15.8831V15.8831C17.2395 15.8831 17.2395 15.8831 17.2395 15.8831C17.2395 15.8831 17.2395 15.8831 17.2395 15.8831C17.2395 15.8831 17.2395 15.8831 17.2395 15.8831L16.9567 16.1659C16.9567 16.1659 16.9567 16.1659 16.9567 16.1659C16.9567 16.1659 16.9567 16.1659 16.9567 16.1659C16.9567 16.1659 16.9567 16.1659 16.9567 16.1659V16.1659C16.9567 16.1659 16.9567 16.1659 16.9567 16.1659C16.9567 16.1659 16.9567 16.1659 16.9567 16.1659C16.9567 16.1659 16.9567 16.1659 16.9567 16.1659C16.9567 15.883 17.2395 15.883 17.2395 15.8831C17.2395 15.883 17.2395 15.8831 17.2395 15.8831V15.8831C17.2395 15.8831 17.2395 15.8831 17.2395 15.8831C17.2395 15.883 17.2395 15.8831 17.2395 15.883C17.2395 15.883 17.2395 15.883 17.2395 15.883C17.2395 15.883 17.2395 15.883 17.2395 15.883C17.2395 15.8831 17.2395 15.883 17.2395 15.883C17.2395 15.883 16.9567 15.883 16.9567 16.1659C16.9567 16.1659 16.9567 16.1659 16.9567 16.1659C16.9567 16.1659 16.9567 16.1659 16.9567 16.1659L17.2395 15.8831ZM7.70896 13.1053C4.50696 13.1053 1.90096 10.4996 1.90096 7.29734H1.50096C1.50096 10.7206 4.28606 13.5053 7.70896 13.5053V13.1053ZM13.517 7.29734C13.517 10.4997 10.911 13.1053 7.70896 13.1053V13.5053C11.1319 13.5053 13.917 10.7206 13.917 7.29734H13.517ZM7.70896 1.48931C10.911 1.48931 13.517 4.09499 13.517 7.29734H13.917C13.917 3.87406 11.1319 1.08931 7.70896 1.08931V1.48931ZM1.90096 7.29734C1.90096 4.09502 4.50696 1.48931 7.70896 1.48931V1.08931C4.28606 1.08931 1.50096 3.8741 1.50096 7.29734H1.90096Z" fill="#364CB0" mask="url(#path-1-outside-1_321_490)"/>
</svg>
