<svg width="24" height="24" viewBox="0 0 24 24" fill="none" xmlns="http://www.w3.org/2000/svg">
<path d="M23.4083 23.2317L23.4083 23.2317L17.6408 16.396C19.1148 14.6788 20.0148 12.4534 20.0148 10.0161C20.0147 4.6001 15.6088 0.194128 10.1927 0.194128C4.77667 0.194128 0.370703 4.6001 0.370703 10.0162C0.370703 15.4322 4.77667 19.8382 10.1927 19.8382C12.63 19.8382 14.8554 18.9383 16.5726 17.4643L22.34 23.2317C22.4875 23.3791 22.6812 23.453 22.8742 23.453C23.0671 23.453 23.2608 23.3791 23.4083 23.2317ZM10.1927 18.3274C5.61054 18.3274 1.88154 14.5988 1.88154 10.0162C1.88154 5.4335 5.61054 1.70492 10.1927 1.70492C14.7749 1.70492 18.5039 5.43346 18.5039 10.0162C18.5039 14.5989 14.7749 18.3274 10.1927 18.3274Z" fill="#9396A5" stroke="#9396A5" stroke-width="0.2"/>
</svg>
