<svg width="15" height="20" viewBox="0 0 15 20" fill="none" xmlns="http://www.w3.org/2000/svg">
<path d="M11.7176 19.0938H3.0373C2.52922 19.0926 2.04229 18.8902 1.68302 18.5309C1.32374 18.1716 1.12135 17.6847 1.12012 17.1766V3.65601C1.12012 3.46953 1.1942 3.29068 1.32606 3.15882C1.45792 3.02696 1.63676 2.95288 1.82324 2.95288H12.9326C13.1191 2.95288 13.2979 3.02696 13.4298 3.15882C13.5617 3.29068 13.6357 3.46953 13.6357 3.65601V17.1766C13.6345 17.6849 13.432 18.1719 13.0725 18.5312C12.713 18.8906 12.2259 19.0928 11.7176 19.0938ZM2.52637 4.35913V17.1766C2.52649 17.3121 2.58036 17.442 2.67615 17.5378C2.77195 17.6336 2.90183 17.6874 3.0373 17.6876H11.7176C11.8532 17.6876 11.9832 17.6338 12.0791 17.5379C12.175 17.4421 12.2289 17.3122 12.229 17.1766V4.35913H2.52637Z" fill="#9396A5"/>
<path d="M10.3301 4.35915H4.42383C4.23735 4.35915 4.05851 4.28507 3.92664 4.15321C3.79478 4.02135 3.7207 3.84251 3.7207 3.65603V2.37821C3.72145 1.82228 3.94265 1.28933 4.33581 0.896265C4.72896 0.503202 5.26195 0.282114 5.81789 0.281494H8.93602C9.49195 0.282114 10.0249 0.503202 10.4181 0.896265C10.8113 1.28933 11.0325 1.82228 11.0332 2.37821V3.65603C11.0332 3.84251 10.9591 4.02135 10.8273 4.15321C10.6954 4.28507 10.5166 4.35915 10.3301 4.35915ZM5.12695 2.9529H9.62695V2.37821C9.6267 2.19508 9.55382 2.01953 9.42428 1.89009C9.29474 1.76064 9.11914 1.68787 8.93602 1.68774H5.81789C5.63484 1.68799 5.45936 1.76082 5.32993 1.89025C5.2005 2.01969 5.12767 2.19517 5.12742 2.37821L5.12695 2.9529Z" fill="#9396A5"/>
<path d="M7.37695 16.4024C7.19047 16.4024 7.01163 16.3283 6.87977 16.1964C6.74791 16.0646 6.67383 15.8857 6.67383 15.6992V6.34814C6.67383 6.16166 6.74791 5.98282 6.87977 5.85096C7.01163 5.7191 7.19047 5.64502 7.37695 5.64502C7.56343 5.64502 7.74228 5.7191 7.87414 5.85096C8.006 5.98282 8.08008 6.16166 8.08008 6.34814V15.6992C8.08008 15.8857 8.006 16.0646 7.87414 16.1964C7.74228 16.3283 7.56343 16.4024 7.37695 16.4024Z" fill="#9396A5"/>
<path d="M4.83887 16.4024C4.65239 16.4024 4.47354 16.3283 4.34168 16.1964C4.20982 16.0646 4.13574 15.8857 4.13574 15.6992V6.34814C4.13574 6.16166 4.20982 5.98282 4.34168 5.85096C4.47354 5.7191 4.65239 5.64502 4.83887 5.64502C5.02535 5.64502 5.20419 5.7191 5.33605 5.85096C5.46791 5.98282 5.54199 6.16166 5.54199 6.34814V15.6992C5.54199 15.8857 5.46791 16.0646 5.33605 16.1964C5.20419 16.3283 5.02535 16.4024 4.83887 16.4024Z" fill="#9396A5"/>
<path d="M9.91699 16.4024C9.73051 16.4024 9.55167 16.3283 9.41981 16.1964C9.28795 16.0646 9.21387 15.8857 9.21387 15.6992V6.34814C9.21387 6.16166 9.28795 5.98282 9.41981 5.85096C9.55167 5.7191 9.73051 5.64502 9.91699 5.64502C10.1035 5.64502 10.2823 5.7191 10.4142 5.85096C10.546 5.98282 10.6201 6.16166 10.6201 6.34814V15.6992C10.6201 15.8857 10.546 16.0646 10.4142 16.1964C10.2823 16.3283 10.1035 16.4024 9.91699 16.4024Z" fill="#9396A5"/>
<path d="M14.022 4.35913H0.733398C0.546918 4.35913 0.368076 4.28505 0.236214 4.15319C0.104353 4.02133 0.0302734 3.84249 0.0302734 3.65601C0.0302734 3.46953 0.104353 3.29068 0.236214 3.15882C0.368076 3.02696 0.546918 2.95288 0.733398 2.95288H14.022C14.2085 2.95288 14.3873 3.02696 14.5192 3.15882C14.651 3.29068 14.7251 3.46953 14.7251 3.65601C14.7251 3.84249 14.651 4.02133 14.5192 4.15319C14.3873 4.28505 14.2085 4.35913 14.022 4.35913Z" fill="#9396A5"/>
</svg>
