<svg width="14" height="15" viewBox="0 0 14 15" fill="none" xmlns="http://www.w3.org/2000/svg">
<g clip-path="url(#clip0_415_496)">
<path d="M6.89937 7.24384C7.82585 7.24384 8.62811 6.91155 9.28361 6.25594C9.93911 5.60044 10.2714 4.7984 10.2714 3.87181C10.2714 2.94555 9.93911 2.1434 9.2835 1.48768C8.62789 0.832289 7.82574 0.5 6.89937 0.5C5.97278 0.5 5.17074 0.832289 4.51524 1.48779C3.85974 2.14329 3.52734 2.94544 3.52734 3.87181C3.52734 4.7984 3.85974 5.60055 4.51535 6.25605C5.17095 6.91144 5.9731 7.24384 6.89937 7.24384Z" fill="#2B2A28"/>
<path d="M12.8004 11.2652C12.7814 10.9924 12.7432 10.6948 12.6869 10.3806C12.6301 10.064 12.5569 9.76471 12.4693 9.49117C12.3789 9.20844 12.2558 8.92924 12.1037 8.66168C11.9459 8.38397 11.7604 8.14215 11.5524 7.94316C11.3348 7.73498 11.0684 7.56761 10.7604 7.44553C10.4534 7.32408 10.1132 7.26256 9.74929 7.26256C9.60638 7.26256 9.46817 7.3212 9.20125 7.49498C9.03697 7.60211 8.84482 7.72601 8.63034 7.86305C8.44695 7.9799 8.1985 8.08938 7.89164 8.1885C7.59224 8.28538 7.28826 8.33451 6.98823 8.33451C6.6882 8.33451 6.38432 8.28538 6.08461 8.1885C5.77806 8.08949 5.52962 7.98001 5.34643 7.86316C5.13399 7.7274 4.94173 7.6035 4.77499 7.49487C4.50839 7.32109 4.37007 7.26245 4.22716 7.26245C3.86315 7.26245 3.52306 7.32408 3.21619 7.44563C2.90836 7.5675 2.64187 7.73488 2.42408 7.94327C2.21612 8.14236 2.03059 8.38407 1.87294 8.66168C1.72095 8.92924 1.5979 9.20834 1.50732 9.49128C1.41984 9.76482 1.34668 10.064 1.28986 10.3806C1.23357 10.6944 1.19533 10.9921 1.17642 11.2655C1.15784 11.5334 1.14844 11.8114 1.14844 12.0922C1.14844 12.823 1.38075 13.4147 1.83886 13.851C2.29132 14.2815 2.88999 14.5 3.61802 14.5H10.3591C11.0871 14.5 11.6856 14.2816 12.1381 13.851C12.5963 13.415 12.8287 12.8233 12.8287 12.0921C12.8286 11.81 12.819 11.5318 12.8004 11.2652Z" fill="#2B2A28"/>
</g>
<defs>
<clipPath id="clip0_415_496">
<rect width="13.9999" height="14" fill="white" transform="translate(0 0.5)"/>
</clipPath>
</defs>
</svg>
