<svg width="16" height="12" viewBox="0 0 16 12" fill="none" xmlns="http://www.w3.org/2000/svg">
<path d="M8 0.545441C4.36364 0.545441 1.23636 2.79999 0 5.99999C1.23636 9.19999 4.36364 11.4545 8 11.4545C11.6364 11.4545 14.7636 9.19999 16 5.99999C14.7636 2.79999 11.6364 0.545441 8 0.545441ZM8 9.63635C5.96364 9.63635 4.36364 8.03635 4.36364 5.99999C4.36364 3.96362 5.96364 2.36362 8 2.36362C10.0364 2.36362 11.6364 3.96362 11.6364 5.99999C11.6364 8.03635 10.0364 9.63635 8 9.63635ZM8 3.81817C6.76364 3.81817 5.81818 4.76362 5.81818 5.99999C5.81818 7.23635 6.76364 8.1818 8 8.1818C9.23636 8.1818 10.1818 7.23635 10.1818 5.99999C10.1818 4.76362 9.23636 3.81817 8 3.81817Z" fill="#E1E4F3"/>
</svg>
